<?xml version="1.0" encoding="UTF-8"?>
<svg id="Layer_2" data-name="Layer 2" xmlns="http://www.w3.org/2000/svg" viewBox="0 0 972.56 980.84">
  <defs>
    <style>
      .cls-1 {
        fill: #282a2d;
      }

      .cls-2 {
        fill: #e49f0d;
      }
    </style>
  </defs>
  <g id="WideLogo_Image" data-name="WideLogo Image">
    <g>
      <path class="cls-1" d="M70.93,234.41c57.4-95.65,150.07-169.45,255.49-206.99,263.07-93.68,556.27,61.58,628.39,330.88,6.92,25.85,12.54,52.59,13.97,78.94.19,3.54,2.48,6.42,2.83,9.27.57,4.67-1.22,13.2-1.1,19.08.16,7.98,2.01,18.03,2.04,25.96.84,246.73-201.19,475.98-451.45,488.55-168.06,8.44-312.62-55.78-416.56-186.54C-22.48,633.76-33.83,408.98,70.93,234.41ZM746.15,435.65c24.42-33.77,52.06-20.9,86.88-22.6,13.42-.65,13.79-8.96,5.56-17.52-50.53-52.57-139.57-47.96-185.03,9.03-4.99,6.26-8.61,14.07-13,20-3.19,4.31-5.16,4.58-9.17,6.62-12.08,6.16-17.12,2.84-29.38,2.85-79.95.09-159.66,1.69-239.98,1.08-8.93-.07-21.62.9-29.88-.13-18.16-2.27-19.57-13.65-29.58-25.42-49.7-58.44-146.35-37.38-168.24,32.75-33.28,106.63,86.64,182.51,163.76,108.78,7.53-7.2,12.07-15.34,18.02-22.98,1.68-2.15,7.44-5.29,10.21-5.79,99.8-.87,200.23.29,299.75-.26,5.19-.03,5,2.67,6.79,3.7,1.3.74,2.75.29,4.78,1.73,2.43,1.72,9.34,13.72,11.77,17.25,13.35,19.41,31.43,37.59,54.13,45.85,46.46,16.9,92.53,7.98,128.8-23.48,1.63-1.41,5.1-2.39,5.94-3.34.32-.37,4.94-7.72,5.18-8.3,2.31-5.64.78-10.53-5.5-11.28-18.88-2.27-39.6,3.89-59.41-.61-40.28-9.16-49.32-55.21-40.89-89.91,1.93-7.93,3.89-11.64,8.49-18.01Z"/>
      <path class="cls-2" d="M746.15,435.65c-4.6,6.36-6.56,10.08-8.49,18.01-8.43,34.69.61,80.75,40.89,89.91,19.8,4.5,40.53-1.66,59.41.61,6.28.76,7.81,5.64,5.5,11.28-.24.58-4.85,7.94-5.18,8.3-.84.95-4.31,1.93-5.94,3.34-36.27,31.46-82.34,40.37-128.8,23.48-22.7-8.25-40.78-26.43-54.13-45.85-2.43-3.53-9.35-15.53-11.77-17.25-2.03-1.44-3.48-.99-4.78-1.73-1.79-1.02-1.6-3.72-6.79-3.7-99.52.55-199.95-.61-299.75.26-2.77.5-8.53,3.63-10.21,5.79-5.95,7.64-10.48,15.78-18.02,22.98-77.12,73.74-197.05-2.15-163.76-108.78,21.89-70.13,118.53-91.18,168.24-32.75,10.01,11.77,11.42,23.15,29.58,25.42,8.26,1.03,20.95.06,29.88.13,80.33.62,160.03-.99,239.98-1.08,12.25-.01,17.3,3.31,29.38-2.85,4.02-2.05,5.98-2.31,9.17-6.62,4.39-5.93,8.01-13.74,13-20,45.46-57,134.51-61.6,185.03-9.03,8.23,8.57,7.85,16.87-5.56,17.52-34.82,1.7-62.46-11.16-86.88,22.6Z"/>
    </g>
  </g>
</svg>