<?xml version="1.0" encoding="UTF-8"?>
<svg id="Layer_2" data-name="Layer 2" xmlns="http://www.w3.org/2000/svg" viewBox="0 0 2680 1024">
  <defs>
    <style>
      .cls-1 {
        fill: #282a2d;
      }

      .cls-2 {
        fill: #e49f0d;
      }
    </style>
  </defs>
  <g id="WideLogo_Image" data-name="WideLogo Image">
    <g>
      <path class="cls-2" d="M2284.64,118.39c86.54,35.19,138.59,127.12,133.15,219.1-5.5,114.29,4.63,232.07-.75,346.05-5.73,121.53-118.11,220.32-240.5,213.5h-1112.09c-19.02-1.47-38.32-1.92-57.46-2.05l.68-3.04,16.54-12.99c62.18-57.02,109.25-128.01,137.09-207.12,10.14-28.83,15.76-52.09,20.92-82.11,7.38-42.94,9.21-92.2,4.72-136.17-.57-5.56-2.02-12.32-2.85-18.16-18.44-129.71-87.08-245.15-192.61-326.39-2.07-1.59-6.71-1.46-3.52-5.55l1209.57-.5c29.99.9,59.07,4.03,87.1,15.43ZM1663.01,299.01c.27-.27.11-6.25-.01-7.5-4.67-47.21-37.32-59.84-80.53-56.55-55.32,4.22-71.05,81.26-29.79,112.87,23.18,17.76,77.15,23.79,69.88,62.21-4.57,24.14-46.58,24.97-52.69-2.4-2.49-11.15,3.88-16.12-11.34-14.64-2.84.28-5.51,1.67-8.11,1.88-9.16.75-18.29.19-27.4,2.11,1.96,21.21,8.41,42.28,26.1,55.41,20.48,15.21,54.17,16.38,77.43,7.61,47.54-17.94,52.14-85.95,11.22-114.25-21.81-15.08-74.97-25.35-63.45-60.98,5.44-16.83,32.38-18.52,41.14-3.71,4.43,7.49,2.31,12.59,3.58,19.42.91,4.89,7.83.89,11.5.51,5.63-.58,11.72-1.55,17-2,2.6-.22,14.95.54,15.5,0ZM1874.78,235.28c-46.68,5.58-58.16,58.71-59.82,97.18-2.09,48.57.74,124.19,62.78,132.31,36.34,4.75,67.88-7.02,82.89-41.63,14.73-33.94,15.03-116.74-1.11-150.16-17.18-35.57-47.45-42.16-84.75-37.7ZM1807,278l.81-38.74c.38-.8-.95-2.26-1.31-2.26h-131c-.11,0-1.5,1.39-1.5,1.5v38c0,.11,1.39,1.5,1.5,1.5h41.5v182.5c0,.11,1.39,1.5,1.5,1.5h43l2-184h43.5ZM2185.5,238h-45c-1.1,0-3.55-3.34-2.08,2.08,18.86,48.49,38.9,96.88,54.58,146.42v74.5h44v-82.5c0-1.8,11.88-28.67,13.64-33.36,13.39-35.75,27.01-71.39,40.35-107.14l-46.85.16-27.66,94.85c-1.74.13-2.14-1.12-2.46-2.54-2.83-12.58-6.46-25.21-10.32-37.68-5.19-16.74-10.32-35.55-16.19-51.81-.31-.85-1.31-2.77-2.02-2.98ZM1331,238h-44v223h44v-90h51.5c2.97,0,.52,8.65.46,10.46-.84,26.45.71,53.09.04,79.54h44v-223h-44v92c-10.11,0-20.3.02-30.37-.13-2.11-.03-4.42-.93-7.13-.93-2.42,0-14.5,2.62-14.5-.43v-90.5ZM1503,238h-44v223h44v-223ZM2139,461l-37.02-88.59c-.21-3.63,6.65-6.02,9.5-8.43,29.63-25.06,29.27-87.71-.47-112.49-6.02-5.02-21.96-13.49-29.51-13.49h-84.5v223h44v-81.5c0-2.08,15.24-2.5,17.05-.05l31.95,81.55h49ZM1331,523h-42.5v224h42.5v-90.5c0-.11,1.39-1.5,1.5-1.5h50.5v90.5c0,.11,1.39,1.5,1.5,1.5h42.5v-222.5c0-.11-1.39-1.5-1.5-1.5h-41.5l-1.5,92h-51.5v-92ZM1502,562h64.5c.35,0,1.68-1.45,1.31-2.26v-34.49c.38-.8-.95-2.26-1.31-2.26h-106v224h107c.11,0,1.5-1.39,1.5-1.5v-39.5h-67v-52.5c0-.11,1.39-1.5,1.5-1.5h56.5v-37.5c0-.11-1.39-1.5-1.5-1.5h-56.5v-51ZM1746,747l-52.45-223.05-53.08-1.02-56.46,224.07h44.5c.42,0,1.11-1.12,1.29-1.71l8.47-39.53c.85-2.78,2.8-2.57,5.19-2.81,10.47-1.04,31.46-.85,42.1.02,1.83.15,5.07.43,6.43,1.57,3.13,2.63,8.28,42.47,10.53,42.47h43.5ZM1810,706v-181.5c0-.11-1.39-1.5-1.5-1.5h-42.5v224h106v-41h-62ZM1935,561c1.08-.37,2.19,1,2.5,1h63c2.35,0,1.52-15.87,1.49-18.49-.02-1.89-1.03-3.88-1.08-6.01-.04-1.97,2.3-14.5-.41-14.5h-108.5v224h108.5c.11,0,1.5-1.39,1.5-1.5v-38c0-.19-1.13-1.29-1.58-1.39l-62.94.93c-.84.12-2.49-1.05-2.49-1.54v-53.5h58v-37.5c0-.11-1.39-1.5-1.5-1.5h-56.5v-52ZM2027,747h41.5c.11,0,1.5-1.39,1.5-1.5v-77c0-.27-.92-.93-.81-1.84.51-4.18,13.99-.69,17.65-1.49l33.66,81.83h45.5l-37.05-90.54c-.43-2.05,1.93-1.3,3.53-2.44,29.19-20.83,33.43-57.16,22.81-89.8-17.6-54.07-80.89-37.9-124.83-41.26-1.47-.08-3.93-.05-4.34,1.63l.88,222.42Z"/>
      <path class="cls-1" d="M280.37,252.36c57.4-95.65,150.07-169.45,255.49-206.99,263.07-93.68,556.27,61.58,628.39,330.88,6.92,25.85,12.54,52.59,13.97,78.94.19,3.54,2.48,6.42,2.83,9.27.57,4.67-1.22,13.2-1.1,19.08.16,7.98,2.01,18.03,2.04,25.96.84,246.73-201.19,475.98-451.45,488.55-168.06,8.44-312.62-55.78-416.56-186.54-127.03-159.81-138.38-384.59-33.62-559.16ZM955.59,453.6c24.42-33.77,52.06-20.9,86.88-22.6,13.42-.65,13.79-8.96,5.56-17.52-50.53-52.57-139.57-47.96-185.03,9.03-4.99,6.26-8.61,14.07-13,20-3.19,4.31-5.16,4.58-9.17,6.62-12.08,6.16-17.12,2.84-29.38,2.85-79.95.09-159.66,1.69-239.98,1.08-8.93-.07-21.62.9-29.88-.13-18.16-2.27-19.57-13.65-29.58-25.42-49.7-58.44-146.35-37.38-168.24,32.75-33.28,106.63,86.64,182.51,163.76,108.78,7.53-7.2,12.07-15.34,18.02-22.98,1.68-2.15,7.44-5.29,10.21-5.79,99.8-.87,200.23.29,299.75-.26,5.19-.03,5,2.67,6.79,3.7,1.3.74,2.75.29,4.78,1.73,2.43,1.72,9.34,13.72,11.77,17.25,13.35,19.41,31.43,37.59,54.13,45.85,46.46,16.9,92.53,7.98,128.8-23.48,1.63-1.41,5.1-2.39,5.94-3.34.32-.37,4.94-7.72,5.18-8.3,2.31-5.64.78-10.53-5.5-11.28-18.88-2.27-39.6,3.89-59.41-.61-40.28-9.16-49.32-55.21-40.89-89.91,1.93-7.93,3.89-11.64,8.49-18.01Z"/>
      <path class="cls-1" d="M1874.78,235.28c37.3-4.46,67.56,2.13,84.75,37.7,16.14,33.41,15.83,116.21,1.11,150.16-15.02,34.62-46.55,46.38-82.89,41.63-62.04-8.11-64.87-83.73-62.78-132.31,1.66-38.47,13.14-91.6,59.82-97.18ZM1890.8,272.3c-24.29,1.72-27.84,30.65-28.84,50.16-1.14,22.16-2.89,77.45,10.63,94.45,11.85,14.89,36.58,11.44,45.24-5.58,10.61-20.88,10.35-87.38,4.93-110.58-4.18-17.85-11.96-29.86-31.95-28.44Z"/>
      <path class="cls-1" d="M2139,461h-49l-31.95-81.55c-1.81-2.45-17.05-2.03-17.05.05v81.5h-44v-223h84.5c7.55,0,23.49,8.47,29.51,13.49,29.73,24.78,30.1,87.43.47,112.49-2.84,2.4-9.71,4.8-9.5,8.43l37.02,88.59ZM2041,344h22.5c.41,0,6.74-1.22,7.53-1.47,23.62-7.18,24.45-57.86,2.5-66.57-1.83-.73-10.54-2.96-12.04-2.96h-19c-.11,0-1.5,1.39-1.5,1.5v69.5Z"/>
      <path class="cls-1" d="M1331,523v92h51.5l1.5-92h41.5c.11,0,1.5,1.39,1.5,1.5v222.5h-42.5c-.11,0-1.5-1.39-1.5-1.5v-90.5h-50.5c-.11,0-1.5,1.39-1.5,1.5v90.5h-42.5v-224h42.5Z"/>
      <path class="cls-1" d="M1331,238v90.5c0,3.06,12.08.44,14.5.43,2.71,0,5.02.9,7.13.93,10.07.16,20.27.12,30.37.13v-92h44v223h-44c.67-26.46-.88-53.09-.04-79.54.06-1.81,2.51-10.46-.46-10.46h-51.5v90h-44v-223h44Z"/>
      <path class="cls-1" d="M2027,747l-.88-222.42c.41-1.67,2.87-1.71,4.34-1.63,43.94,3.36,107.24-12.81,124.83,41.26,10.62,32.64,6.38,68.97-22.81,89.8-1.6,1.14-3.97.39-3.53,2.44l37.05,90.54h-45.5l-33.66-81.83c-3.65.8-17.14-2.69-17.65,1.49-.11.91.81,1.57.81,1.84v77c0,.11-1.39,1.5-1.5,1.5h-41.5ZM2070,561.5v68c0,.11,1.39,1.5,1.5,1.5h21c.44,0,7.63-2.23,8.43-2.57,21.82-9.3,22.85-58.14-.98-65.88-5.17-1.68-14.72-2.38-20.4-2.59-2.18-.08-8.88-.62-9.55,1.54Z"/>
      <path class="cls-1" d="M1746,747h-43.5c-2.25,0-7.4-39.84-10.53-42.47-1.36-1.14-4.6-1.42-6.43-1.57-10.63-.87-31.63-1.06-42.1-.02-2.38.24-4.34.03-5.19,2.81l-8.47,39.53c-.18.59-.87,1.71-1.29,1.71h-44.5l56.46-224.07,53.08,1.02,52.45,223.05ZM1645.5,668h41.5l-20-97.01c-4.68-1.01-2.58,2.55-3.12,6.38-2.32,16.3-7.93,32.45-10.11,48.89l-9.57,39.48c-.3.82.75,2.1,1.31,2.26Z"/>
      <path class="cls-1" d="M1663.01,299.01c-.55.55-12.9-.22-15.5,0-5.28.45-11.37,1.42-17,2-3.68.38-10.6,4.38-11.5-.51-1.27-6.83.86-11.93-3.58-19.42-8.77-14.81-35.7-13.12-41.14,3.71-11.52,35.63,41.65,45.9,63.45,60.98,40.92,28.3,36.32,96.31-11.22,114.25-23.26,8.78-56.95,7.6-77.43-7.61-17.68-13.13-24.14-34.2-26.1-55.41,9.11-1.92,18.24-1.35,27.4-2.11,2.6-.21,5.27-1.61,8.11-1.88,15.22-1.48,8.85,3.49,11.34,14.64,6.12,27.36,48.12,26.53,52.69,2.4,7.27-38.43-46.7-44.45-69.88-62.21-41.26-31.61-25.53-108.65,29.79-112.87,43.21-3.29,75.86,9.33,80.53,56.55.12,1.25.28,7.23.01,7.5Z"/>
      <path class="cls-1" d="M1935,561v52h56.5c.11,0,1.5,1.39,1.5,1.5v37.5h-58v53.5c0,.49,1.65,1.66,2.49,1.54l62.94-.93c.44.1,1.58,1.2,1.58,1.39v38c0,.11-1.39,1.5-1.5,1.5h-108.5v-224h108.5c2.71,0,.37,12.53.41,14.5.05,2.13,1.06,4.12,1.08,6.01.03,2.62.86,18.49-1.49,18.49h-63c-.31,0-1.42-1.37-2.5-1Z"/>
      <path class="cls-1" d="M1502,562v51h56.5c.11,0,1.5,1.39,1.5,1.5v37.5h-56.5c-.11,0-1.5,1.39-1.5,1.5v52.5h67v39.5c0,.11-1.39,1.5-1.5,1.5h-107v-224h106c.35,0,1.68,1.45,1.31,2.26v34.49c.38.8-.95,2.26-1.31,2.26h-64.5Z"/>
      <path class="cls-1" d="M2185.5,238c.71.21,1.71,2.13,2.02,2.98,5.87,16.26,11,35.07,16.19,51.81,3.86,12.46,7.49,25.1,10.32,37.68.32,1.41.72,2.67,2.46,2.54l27.66-94.85,46.85-.16c-13.35,35.75-26.97,71.39-40.35,107.14-1.76,4.69-13.64,31.56-13.64,33.36v82.5h-44v-74.5c-15.68-49.54-35.72-97.93-54.58-146.42-1.47-5.42.98-2.08,2.08-2.08h45Z"/>
      <path class="cls-1" d="M1807,278h-43.5l-2,184h-43c-.11,0-1.5-1.39-1.5-1.5v-182.5h-41.5c-.11,0-1.5-1.39-1.5-1.5v-38c0-.11,1.39-1.5,1.5-1.5h131c.35,0,1.68,1.45,1.31,2.26l-.81,38.74Z"/>
      <path class="cls-1" d="M1810,706h62v41h-106v-224h42.5c.11,0,1.5,1.39,1.5,1.5v181.5Z"/>
      <rect class="cls-1" x="1459" y="238" width="44" height="223"/>
      <path class="cls-2" d="M955.59,453.6c-4.6,6.36-6.56,10.08-8.49,18.01-8.43,34.69.61,80.75,40.89,89.91,19.8,4.5,40.53-1.66,59.41.61,6.28.76,7.81,5.64,5.5,11.28-.24.58-4.85,7.94-5.18,8.3-.84.95-4.31,1.93-5.94,3.34-36.27,31.46-82.34,40.37-128.8,23.48-22.7-8.25-40.78-26.43-54.13-45.85-2.43-3.53-9.35-15.53-11.77-17.25-2.03-1.44-3.48-.99-4.78-1.73-1.79-1.02-1.6-3.72-6.79-3.7-99.52.55-199.95-.61-299.75.26-2.77.5-8.53,3.63-10.21,5.79-5.95,7.64-10.48,15.78-18.02,22.98-77.12,73.74-197.05-2.15-163.76-108.78,21.89-70.13,118.53-91.18,168.24-32.75,10.01,11.77,11.42,23.15,29.58,25.42,8.26,1.03,20.95.06,29.88.13,80.33.62,160.03-.99,239.98-1.08,12.25-.01,17.3,3.31,29.38-2.85,4.02-2.05,5.98-2.31,9.17-6.62,4.39-5.93,8.01-13.74,13-20,45.46-57,134.51-61.6,185.03-9.03,8.23,8.57,7.85,16.87-5.56,17.52-34.82,1.7-62.46-11.16-86.88,22.6Z"/>
      <path class="cls-2" d="M1890.8,272.3c19.99-1.42,27.78,10.59,31.95,28.44,5.43,23.2,5.69,89.7-4.93,110.58-8.65,17.03-33.39,20.47-45.24,5.58-13.53-17-11.77-72.29-10.63-94.45,1-19.51,4.55-48.43,28.84-50.16Z"/>
      <path class="cls-2" d="M2041,344v-69.5c0-.11,1.39-1.5,1.5-1.5h19c1.5,0,10.21,2.23,12.04,2.96,21.94,8.71,21.11,59.4-2.5,66.57-.8.24-7.12,1.47-7.53,1.47h-22.5Z"/>
      <path class="cls-2" d="M2070,561.5c.67-2.16,7.37-1.62,9.55-1.54,5.69.2,15.23.91,20.4,2.59,23.83,7.74,22.8,56.57.98,65.88-.8.34-7.99,2.57-8.43,2.57h-21c-.11,0-1.5-1.39-1.5-1.5v-68Z"/>
      <path class="cls-2" d="M1645.5,668c-.56-.16-1.61-1.44-1.31-2.26l9.57-39.48c2.18-16.44,7.79-32.58,10.11-48.89.55-3.83-1.56-7.4,3.12-6.38l20,97.01h-41.5Z"/>
    </g>
  </g>
</svg>